<?xml version="1.0" encoding="utf-8"?>
<!-- Generator: Adobe Illustrator 25.3.1, SVG Export Plug-In . SVG Version: 6.00 Build 0)  -->
<svg version="1.1" id="圖層_1" xmlns="http://www.w3.org/2000/svg" xmlns:xlink="http://www.w3.org/1999/xlink" x="0px" y="0px"
	 viewBox="0 0 100 100" style="enable-background:new 0 0 100 100;" xml:space="preserve">
<style type="text/css">
	.st0{fill:#FFFFFF;}
</style>
<g>
	<path class="st0" d="M18.5,67.1H1.5V40.2h4.7v22.4h12.4V67.1z"/>
	<path class="st0" d="M46.7,53.7c0,4.1-1.1,7.5-3.3,9.9c-2.3,2.6-5.5,3.9-9.6,3.9c-4,0-7.2-1.3-9.5-3.9c-2.2-2.5-3.3-5.8-3.3-9.9
		c0-4.2,1.1-7.5,3.3-10c2.3-2.7,5.5-4,9.5-4c4.1,0,7.3,1.3,9.6,4C45.7,46.2,46.7,49.6,46.7,53.7z M41.7,53.7c0-2.7-0.6-4.9-1.8-6.7
		c-1.4-1.9-3.4-2.9-6-2.9c-2.6,0-4.6,1-6,2.9c-1.2,1.7-1.8,3.9-1.8,6.7c0,2.7,0.6,4.9,1.8,6.6c1.4,1.9,3.4,2.9,6,2.9
		c2.6,0,4.5-1,6-2.9C41.1,58.6,41.7,56.4,41.7,53.7z"/>
	<path class="st0" d="M71.1,65.5c-2.6,1.4-5.9,2.2-9.9,2.2c-3.9,0-7-1.4-9.2-4.1c-2-2.5-3-5.8-3-9.8c0-4,1-7.2,3-9.8
		c2.2-2.8,5.2-4.2,9-4.2c3.1,0,5.5,0.8,7.2,2.4c1.8,1.6,2.7,3.9,2.8,6.9h-4.9c-0.3-3.2-2-4.9-5.2-4.9c-2.4,0-4.2,1-5.4,3.1
		c-1,1.8-1.6,3.9-1.6,6.4c0,6.4,2.8,9.5,8.3,9.5c1.4,0,2.8-0.2,4.1-0.7v-5.7h-6.4v-4.4h11.1V65.5z"/>
	<path class="st0" d="M98.9,53.7c0,4.1-1.1,7.5-3.3,9.9c-2.3,2.6-5.5,3.9-9.6,3.9c-4,0-7.2-1.3-9.5-3.9c-2.2-2.5-3.3-5.8-3.3-9.9
		c0-4.2,1.1-7.5,3.3-10c2.3-2.7,5.5-4,9.5-4c4.1,0,7.3,1.3,9.6,4C97.8,46.2,98.9,49.6,98.9,53.7z M93.9,53.7c0-2.7-0.6-4.9-1.8-6.7
		c-1.4-1.9-3.4-2.9-6-2.9s-4.6,1-6,2.9c-1.2,1.7-1.8,3.9-1.8,6.7c0,2.7,0.6,4.9,1.8,6.6c1.4,1.9,3.4,2.9,6,2.9c2.6,0,4.5-1,6-2.9
		C93.3,58.6,93.9,56.4,93.9,53.7z"/>
</g>
</svg>
